<svg width="107" height="26" viewBox="0 0 107 26" fill="none" xmlns="http://www.w3.org/2000/svg">
<path d="M6.73438 25.75C5.65625 25.75 4.73177 25.6016 3.96094 25.3047C3.19531 25.013 2.58594 24.6146 2.13281 24.1094C1.67969 23.6042 1.38542 23.0365 1.25 22.4062L4.32812 21.9922C4.42187 22.2318 4.57031 22.4557 4.77344 22.6641C4.97656 22.8724 5.24479 23.0391 5.57813 23.1641C5.91667 23.2943 6.32813 23.3594 6.8125 23.3594C7.53646 23.3594 8.13281 23.1823 8.60156 22.8281C9.07552 22.4792 9.3125 21.8932 9.3125 21.0703V18.875H9.17188C9.02604 19.2083 8.80729 19.5234 8.51563 19.8203C8.22396 20.1172 7.84896 20.3594 7.39062 20.5469C6.93229 20.7344 6.38542 20.8281 5.75 20.8281C4.84896 20.8281 4.02865 20.6198 3.28906 20.2031C2.55469 19.7812 1.96875 19.138 1.53125 18.2734C1.09896 17.4036 0.882813 16.3047 0.882813 14.9766C0.882813 13.6172 1.10417 12.4818 1.54688 11.5703C1.98958 10.6589 2.57813 9.97656 3.3125 9.52344C4.05208 9.07031 4.86198 8.84375 5.74219 8.84375C6.41406 8.84375 6.97656 8.95833 7.42969 9.1875C7.88281 9.41146 8.2474 9.69271 8.52344 10.0312C8.80469 10.3646 9.02083 10.6927 9.17188 11.0156H9.29688V9H12.6016V21.1172C12.6016 22.138 12.3516 22.9922 11.8516 23.6797C11.3516 24.3672 10.6589 24.8828 9.77344 25.2266C8.89323 25.5755 7.88021 25.75 6.73438 25.75ZM6.80469 18.3281C7.34115 18.3281 7.79427 18.1953 8.16406 17.9297C8.53906 17.6589 8.82552 17.2734 9.02344 16.7734C9.22656 16.2682 9.32813 15.6641 9.32813 14.9609C9.32813 14.2578 9.22917 13.6484 9.03125 13.1328C8.83333 12.612 8.54688 12.2083 8.17188 11.9219C7.79688 11.6354 7.34115 11.4922 6.80469 11.4922C6.25781 11.4922 5.79688 11.6406 5.42188 11.9375C5.04688 12.2292 4.76302 12.6354 4.57031 13.1562C4.3776 13.6771 4.28125 14.2786 4.28125 14.9609C4.28125 15.6536 4.3776 16.2526 4.57031 16.7578C4.76823 17.2578 5.05208 17.6458 5.42188 17.9219C5.79688 18.1927 6.25781 18.3281 6.80469 18.3281ZM17.3047 25.5C16.8828 25.5 16.487 25.4661 16.1172 25.3984C15.7526 25.3359 15.4505 25.2552 15.2109 25.1562L15.9609 22.6719C16.3516 22.7917 16.7031 22.8568 17.0156 22.8672C17.3333 22.8776 17.6068 22.8047 17.8359 22.6484C18.0703 22.4922 18.2604 22.2266 18.4063 21.8516L18.6016 21.3438L14.2969 9H17.7969L20.2812 17.8125H20.4062L22.9141 9H26.4375L21.7734 22.2969C21.5495 22.9427 21.2448 23.5052 20.8594 23.9844C20.4792 24.4688 19.9974 24.8411 19.4141 25.1016C18.8307 25.3672 18.1276 25.5 17.3047 25.5ZM28.1406 21V9H31.3125V11.1172H31.4531C31.7031 10.4141 32.1198 9.85937 32.7031 9.45312C33.2865 9.04687 33.9844 8.84375 34.7969 8.84375C35.6198 8.84375 36.3203 9.04948 36.8984 9.46094C37.4766 9.86719 37.862 10.4193 38.0547 11.1172H38.1797C38.4245 10.4297 38.8672 9.88021 39.5078 9.46875C40.1536 9.05208 40.9167 8.84375 41.7969 8.84375C42.9167 8.84375 43.8255 9.20052 44.5234 9.91406C45.2266 10.6224 45.5781 11.6276 45.5781 12.9297V21H42.2578V13.5859C42.2578 12.9193 42.0807 12.4193 41.7266 12.0859C41.3724 11.7526 40.9297 11.5859 40.3984 11.5859C39.7943 11.5859 39.3229 11.7786 38.9844 12.1641C38.6458 12.5443 38.4766 13.0469 38.4766 13.6719V21H35.25V13.5156C35.25 12.9271 35.0807 12.4583 34.7422 12.1094C34.4089 11.7604 33.9688 11.5859 33.4219 11.5859C33.0521 11.5859 32.7187 11.6797 32.4219 11.8672C32.1302 12.0495 31.8984 12.3073 31.7266 12.6406C31.5547 12.9687 31.4688 13.3542 31.4688 13.7969V21H28.1406ZM48.207 21V9H51.5352V21H48.207ZM49.8789 7.45312C49.3841 7.45312 48.9596 7.28906 48.6055 6.96094C48.2565 6.6276 48.082 6.22917 48.082 5.76562C48.082 5.30729 48.2565 4.91406 48.6055 4.58594C48.9596 4.2526 49.3841 4.08594 49.8789 4.08594C50.3737 4.08594 50.7956 4.2526 51.1445 4.58594C51.4987 4.91406 51.6758 5.30729 51.6758 5.76562C51.6758 6.22917 51.4987 6.6276 51.1445 6.96094C50.7956 7.28906 50.3737 7.45312 49.8789 7.45312ZM54.2012 21V9H57.5293V21H54.2012ZM55.873 7.45312C55.3783 7.45312 54.9538 7.28906 54.5996 6.96094C54.2507 6.6276 54.0762 6.22917 54.0762 5.76562C54.0762 5.30729 54.2507 4.91406 54.5996 4.58594C54.9538 4.2526 55.3783 4.08594 55.873 4.08594C56.3678 4.08594 56.7897 4.2526 57.1387 4.58594C57.4928 4.91406 57.6699 5.30729 57.6699 5.76562C57.6699 6.22917 57.4928 6.6276 57.1387 6.96094C56.7897 7.28906 56.3678 7.45312 55.873 7.45312ZM62.1406 21.2031C61.625 21.2031 61.1823 21.0208 60.8125 20.6562C60.4479 20.2865 60.2656 19.8437 60.2656 19.3281C60.2656 18.8177 60.4479 18.3802 60.8125 18.0156C61.1823 17.651 61.625 17.4687 62.1406 17.4687C62.6406 17.4687 63.0781 17.651 63.4531 18.0156C63.8281 18.3802 64.0156 18.8177 64.0156 19.3281C64.0156 19.6719 63.9271 19.987 63.75 20.2734C63.5781 20.5547 63.3516 20.7812 63.0703 20.9531C62.7891 21.1198 62.4792 21.2031 62.1406 21.2031ZM66.748 25.5V9H70.0293V11.0156H70.1777C70.3236 10.6927 70.5345 10.3646 70.8105 10.0312C71.0918 9.69271 71.4564 9.41146 71.9043 9.1875C72.3574 8.95833 72.9199 8.84375 73.5918 8.84375C74.4668 8.84375 75.2741 9.07292 76.0137 9.53125C76.7533 9.98437 77.3444 10.6693 77.7871 11.5859C78.2298 12.4974 78.4512 13.6406 78.4512 15.0156C78.4512 16.3542 78.235 17.4844 77.8027 18.4062C77.3757 19.3229 76.7923 20.0182 76.0527 20.4922C75.3184 20.9609 74.4954 21.1953 73.584 21.1953C72.9382 21.1953 72.3887 21.0885 71.9355 20.875C71.4876 20.6615 71.1204 20.3932 70.834 20.0703C70.5475 19.7422 70.3288 19.4115 70.1777 19.0781H70.0762V25.5H66.748ZM70.0059 15C70.0059 15.7135 70.1048 16.3359 70.3027 16.8672C70.5007 17.3984 70.7871 17.8125 71.1621 18.1094C71.5371 18.401 71.9928 18.5469 72.5293 18.5469C73.071 18.5469 73.5293 18.3984 73.9043 18.1016C74.2793 17.7995 74.5632 17.3828 74.7559 16.8516C74.9538 16.3151 75.0527 15.6979 75.0527 15C75.0527 14.3073 74.9564 13.6979 74.7637 13.1719C74.571 12.6458 74.2871 12.2344 73.9121 11.9375C73.5371 11.6406 73.0762 11.4922 72.5293 11.4922C71.9876 11.4922 71.5293 11.6354 71.1543 11.9219C70.7845 12.2083 70.5007 12.6146 70.3027 13.1406C70.1048 13.6667 70.0059 14.2865 70.0059 15ZM83.6855 17.5469L83.6934 13.5547H84.1777L88.0215 9H91.8418L86.6777 15.0313H85.8887L83.6855 17.5469ZM80.6699 21V5H83.998V21H80.6699ZM88.1699 21L84.6387 15.7734L86.8574 13.4219L92.0684 21H88.1699Z" fill="#89C5CC"/>
</svg>
